<?xml version="1.0" encoding="utf-8"?>
<!-- Generator: Adobe Illustrator 16.0.0, SVG Export Plug-In . SVG Version: 6.00 Build 0)  -->
<!DOCTYPE svg PUBLIC "-//W3C//DTD SVG 1.1//EN" "http://www.w3.org/Graphics/SVG/1.1/DTD/svg11.dtd">
<svg version="1.1" id="Layer_1" focusable="false" xmlns="http://www.w3.org/2000/svg" xmlns:xlink="http://www.w3.org/1999/xlink"
	 x="0px" y="0px" width="612px" height="792px" viewBox="0 0 612 792" enable-background="new 0 0 612 792" xml:space="preserve">
<path fill="#FFFFFF" d="M306,99.563C142.293,99.563,9.563,232.341,9.563,396c0,163.754,132.731,296.438,296.438,296.438
	c163.706,0,296.438-132.684,296.438-296.438C602.438,232.341,469.706,99.563,306,99.563z M306,231.047
	c27.727,0,50.203,22.477,50.203,50.203S333.727,331.453,306,331.453s-50.203-22.477-50.203-50.203S278.273,231.047,306,231.047z
	 M372.938,534.656c0,7.921-6.423,14.344-14.344,14.344H253.406c-7.921,0-14.344-6.423-14.344-14.344v-28.688
	c0-7.921,6.422-14.344,14.344-14.344h14.344v-76.5h-14.344c-7.921,0-14.344-6.422-14.344-14.344v-28.688
	c0-7.921,6.422-14.344,14.344-14.344h76.5c7.921,0,14.344,6.422,14.344,14.344v119.531h14.344c7.921,0,14.344,6.423,14.344,14.344
	V534.656z"/>
</svg>
