<?xml version="1.0" encoding="utf-8"?>
<!-- Generator: Adobe Illustrator 16.0.0, SVG Export Plug-In . SVG Version: 6.00 Build 0)  -->
<!DOCTYPE svg PUBLIC "-//W3C//DTD SVG 1.1//EN" "http://www.w3.org/Graphics/SVG/1.1/DTD/svg11.dtd">
<svg version="1.1" id="Layer_1" focusable="false" xmlns="http://www.w3.org/2000/svg" xmlns:xlink="http://www.w3.org/1999/xlink"
	 x="0px" y="0px" width="612px" height="792px" viewBox="0 0 612 792" enable-background="new 0 0 612 792" xml:space="preserve">
<path fill="#FFFFFF" stroke="#FFFFFF" stroke-miterlimit="10" d="M589.768,119.405L465.455,90.717
	c-13.508-3.108-27.373,3.944-32.871,16.615l-57.375,133.875c-5.021,11.714-1.674,25.46,8.247,33.469l72.437,59.288
	c-43.031,91.68-118.217,167.941-211.81,211.809l-59.288-72.436c-8.128-9.921-21.755-13.269-33.469-8.248L17.452,522.464
	c-12.79,5.618-19.842,19.483-16.734,32.991l28.688,124.313C32.393,692.677,43.868,702,57.375,702
	C363.494,702,612,453.973,612,147.375C612,133.987,602.796,122.393,589.768,119.405z"/>
</svg>
