<?xml version="1.0" encoding="utf-8"?>
<!-- Generator: Adobe Illustrator 16.0.0, SVG Export Plug-In . SVG Version: 6.00 Build 0)  -->
<!DOCTYPE svg PUBLIC "-//W3C//DTD SVG 1.1//EN" "http://www.w3.org/Graphics/SVG/1.1/DTD/svg11.dtd">
<svg version="1.1" id="Layer_1" focusable="false" xmlns="http://www.w3.org/2000/svg" xmlns:xlink="http://www.w3.org/1999/xlink"
	 x="0px" y="0px" width="612px" height="792px" viewBox="0 0 612 792" enable-background="new 0 0 612 792" xml:space="preserve">
<path fill="#FFFFFF" d="M597.645,300.375h-71.563l-19.89-49.725c-20.44-51.124-69.221-84.15-124.289-84.15H230.098
	c-55.056,0-103.849,33.026-124.301,84.15l-19.89,49.725H14.355c-9.335,0-16.184,8.773-13.913,17.822l7.172,28.688
	c1.59,6.383,7.327,10.865,13.913,10.865h23.99c-16.053,14.021-26.393,34.401-26.393,57.375V472.5
	c0,19.269,7.363,36.66,19.125,50.119v64.631c0,21.121,17.129,38.25,38.25,38.25h38.25c21.121,0,38.25-17.129,38.25-38.25V549h306
	v38.25c0,21.121,17.129,38.25,38.25,38.25h38.25c21.121,0,38.25-17.129,38.25-38.25v-64.631
	c11.762-13.447,19.125-30.839,19.125-50.119v-57.375c0-22.974-10.34-43.354-26.381-57.375h23.99c6.586,0,12.323-4.482,13.913-10.865
	l7.172-28.688C613.829,309.148,606.979,300.375,597.645,300.375L597.645,300.375z M176.823,279.063
	C185.537,257.284,206.634,243,230.098,243h151.805c23.464,0,44.562,14.284,53.275,36.063L459,338.625H153L176.823,279.063z
	 M114.75,472.261c-22.95,0-38.25-15.252-38.25-38.13C76.5,411.252,91.8,396,114.75,396s57.375,34.317,57.375,57.195
	C172.125,476.074,137.7,472.261,114.75,472.261L114.75,472.261z M497.25,472.261c-22.95,0-57.375,3.813-57.375-19.065
	c0-22.878,34.425-57.195,57.375-57.195s38.25,15.252,38.25,38.131C535.5,457.009,520.2,472.261,497.25,472.261z"/>
</svg>
